<?xml version="1.0" encoding="iso-8859-1"?>
<!-- Uploaded to: SVG Repo, www.svgrepo.com, Generator: SVG Repo Mixer Tools -->
<svg version="1.1" id="Layer_1" xmlns="http://www.w3.org/2000/svg" xmlns:xlink="http://www.w3.org/1999/xlink" 
	 viewBox="0 0 512 512" xml:space="preserve">
<circle style="fill:#8AD5DD;" cx="256" cy="256" r="256"/>
<rect id="SVGCleanerId_0" x="114.84" y="68" style="fill:#FFFFFF;" width="282" height="376"/>
<rect id="SVGCleanerId_1" x="146.176" y="339.8" style="fill:#2D2D2D;" width="97.696" height="8"/>
<rect id="SVGCleanerId_2" x="146.176" y="371.12" style="fill:#E0E0E0;" width="97.696" height="8"/>
<rect id="SVGCleanerId_3" x="146.176" y="386.8" style="fill:#E0E0E0;" width="97.696" height="8"/>
<rect id="SVGCleanerId_4" x="146.176" y="402.48" style="fill:#E0E0E0;" width="97.696" height="8"/>
<path id="SVGCleanerId_5" style="fill:#DB2B42;" d="M355.712,316.384H155.968c-6.464,0-11.752-5.288-11.752-11.752v-144.92
	c0-6.464,5.288-11.752,11.752-11.752H355.72c6.464,0,11.752,5.288,11.752,11.752v144.92
	C367.464,311.096,362.176,316.384,355.712,316.384z"/>
<g>
	<rect id="SVGCleanerId_0_1_" x="114.84" y="68" style="fill:#FFFFFF;" width="282" height="376"/>
</g>
<g>
	<rect id="SVGCleanerId_1_1_" x="146.176" y="339.8" style="fill:#2D2D2D;" width="97.696" height="8"/>
</g>
<g>
	<rect id="SVGCleanerId_2_1_" x="146.176" y="371.12" style="fill:#E0E0E0;" width="97.696" height="8"/>
</g>
<g>
	<rect id="SVGCleanerId_3_1_" x="146.176" y="386.8" style="fill:#E0E0E0;" width="97.696" height="8"/>
</g>
<g>
	<rect id="SVGCleanerId_4_1_" x="146.176" y="402.48" style="fill:#E0E0E0;" width="97.696" height="8"/>
</g>
<g>
	<path id="SVGCleanerId_5_1_" style="fill:#DB2B42;" d="M355.712,316.384H155.968c-6.464,0-11.752-5.288-11.752-11.752v-144.92
		c0-6.464,5.288-11.752,11.752-11.752H355.72c6.464,0,11.752,5.288,11.752,11.752v144.92
		C367.464,311.096,362.176,316.384,355.712,316.384z"/>
</g>
<g>
	<rect x="269.768" y="339.04" style="fill:#E0E0E0;" width="97.696" height="19.016"/>
	<rect x="269.768" y="365.624" style="fill:#E0E0E0;" width="97.696" height="19.016"/>
	<rect x="269.768" y="392.24" style="fill:#E0E0E0;" width="97.696" height="19.016"/>
</g>
<g>
	<rect x="269.768" y="392.24" style="fill:#2D2D2D;" width="20.304" height="19.016"/>
	<rect x="269.768" y="365.624" style="fill:#2D2D2D;" width="20.304" height="19.016"/>
	<rect x="269.768" y="339.04" style="fill:#2D2D2D;" width="20.304" height="19.016"/>
</g>
<g>
	<path style="fill:#E0E0E0;" d="M365.504,100.072v19.616h-135.24v-19.616H365.504 M367.464,98.112h-139.16v23.536h139.16
		L367.464,98.112L367.464,98.112z"/>
	<rect x="341.152" y="98.112" style="fill:#E0E0E0;" width="26.312" height="23.536"/>
</g>
<path style="fill:#DB2B42;" d="M207.496,121.648H173.04c-1.312,0-2.384-1.072-2.384-2.384v-18.768c0-1.312,1.072-2.384,2.384-2.384
	h34.456c1.312,0,2.384,1.072,2.384,2.384v18.768C209.88,120.576,208.8,121.648,207.496,121.648z"/>
<g>
	<path style="fill:#FFFFFF;" d="M177.848,107.264h-2.784v-1.488h7.384v1.488h-2.816v8.28h-1.784L177.848,107.264L177.848,107.264z"
		/>
	<path style="fill:#FFFFFF;" d="M189.12,113.424c0,0.84,0.032,1.544,0.056,2.12h-1.568l-0.088-1.08h-0.024
		c-0.304,0.504-1,1.232-2.264,1.232c-1.288,0-2.464-0.768-2.464-3.072v-4.144h1.784v3.84c0,1.176,0.384,1.936,1.32,1.936
		c0.712,0,1.176-0.504,1.36-0.96c0.064-0.16,0.104-0.344,0.104-0.552v-4.264h1.784V113.424z"/>
	<path style="fill:#FFFFFF;" d="M190.984,115.544c0.032-0.48,0.064-1.264,0.064-1.984v-8.312h1.784v4.2h0.032
		c0.432-0.672,1.2-1.128,2.256-1.128c1.728,0,2.96,1.432,2.944,3.584c0,2.536-1.608,3.8-3.208,3.8c-0.912,0-1.728-0.352-2.232-1.216
		h-0.032l-0.088,1.056H190.984z M192.832,112.632c0,0.152,0.016,0.288,0.04,0.424c0.192,0.712,0.808,1.256,1.584,1.256
		c1.12,0,1.8-0.904,1.8-2.32c0-1.256-0.592-2.264-1.784-2.264c-0.72,0-1.376,0.528-1.584,1.304
		c-0.024,0.128-0.056,0.288-0.056,0.464V112.632z"/>
	<path style="fill:#FFFFFF;" d="M200.792,112.512c0.04,1.28,1.04,1.832,2.176,1.832c0.824,0,1.416-0.12,1.96-0.32l0.264,1.232
		c-0.616,0.248-1.456,0.44-2.472,0.44c-2.288,0-3.64-1.408-3.64-3.576c0-1.952,1.192-3.8,3.448-3.8c2.296,0,3.048,1.888,3.048,3.44
		c0,0.336-0.032,0.592-0.056,0.752C205.52,112.512,200.792,112.512,200.792,112.512z M203.896,111.264
		c0.016-0.648-0.272-1.728-1.464-1.728c-1.104,0-1.568,1.008-1.64,1.728H203.896z"/>
</g>
<g>
	<path style="fill:#2D2D2D;" d="M147.304,115.544v-4.072l-3.088-5.696h2.032l1.176,2.504c0.336,0.728,0.584,1.28,0.848,1.944h0.024
		c0.248-0.624,0.52-1.232,0.856-1.944l1.176-2.504h2.016l-3.248,5.656v4.112H147.304z"/>
	<path style="fill:#2D2D2D;" d="M158.704,111.944c0,2.6-1.824,3.76-3.624,3.76c-2,0-3.536-1.376-3.536-3.632
		c0-2.328,1.52-3.744,3.656-3.744C157.304,108.32,158.704,109.8,158.704,111.944z M153.384,112.024c0,1.36,0.664,2.392,1.752,2.392
		c1.016,0,1.728-1,1.728-2.424c0-1.104-0.496-2.368-1.712-2.368C153.896,109.624,153.384,110.84,153.384,112.024z"/>
	<path style="fill:#2D2D2D;" d="M166.496,113.424c0,0.84,0.032,1.544,0.056,2.12h-1.568l-0.088-1.08h-0.024
		c-0.304,0.504-1,1.232-2.264,1.232c-1.288,0-2.464-0.768-2.464-3.072v-4.144h1.784v3.84c0,1.176,0.384,1.936,1.32,1.936
		c0.712,0,1.176-0.504,1.36-0.96c0.064-0.16,0.104-0.344,0.104-0.552v-4.264h1.784V113.424z"/>
	<path style="fill:#2D2D2D;" d="M353.776,113.776c-3.096,0-5.616-2.52-5.616-5.616s2.52-5.616,5.616-5.616s5.616,2.52,5.616,5.616
		C359.392,111.256,356.872,113.776,353.776,113.776z M353.776,103.816c-2.392,0-4.344,1.952-4.344,4.344s1.952,4.344,4.344,4.344
		s4.344-1.952,4.344-4.344S356.168,103.816,353.776,103.816z"/>
	
		<rect x="355.86" y="113.813" transform="matrix(-0.6044 -0.7967 0.7967 -0.6044 484.5097 469.4711)" style="fill:#2D2D2D;" width="5.896" height="1.272"/>
	<path style="fill:#2D2D2D;" d="M239.928,113.168c0.48,0.296,1.184,0.544,1.92,0.544c1.096,0,1.736-0.576,1.736-1.416
		c0-0.768-0.44-1.216-1.56-1.648c-1.352-0.48-2.192-1.184-2.192-2.352c0-1.296,1.072-2.248,2.68-2.248
		c0.848,0,1.464,0.192,1.832,0.4l-0.296,0.872c-0.272-0.152-0.824-0.392-1.576-0.392c-1.136,0-1.56,0.672-1.56,1.24
		c0,0.776,0.504,1.152,1.648,1.6c1.4,0.544,2.12,1.216,2.12,2.432c0,1.28-0.952,2.392-2.904,2.392c-0.8,0-1.68-0.24-2.12-0.528
		L239.928,113.168z"/>
	<path style="fill:#2D2D2D;" d="M246.824,111.688c0.024,1.472,0.96,2.064,2.048,2.064c0.776,0,1.24-0.128,1.648-0.304l0.184,0.776
		c-0.384,0.176-1.032,0.368-1.984,0.368c-1.832,0-2.928-1.208-2.928-3s1.056-3.216,2.792-3.216c1.952,0,2.464,1.704,2.464,2.808
		c0,0.216-0.024,0.392-0.04,0.496h-4.184V111.688z M250,110.92c0.016-0.688-0.288-1.76-1.504-1.76c-1.096,0-1.576,1.008-1.664,1.76
		H250z"/>
	<path style="fill:#2D2D2D;" d="M255.72,114.472l-0.088-0.752H255.6c-0.336,0.472-0.968,0.888-1.824,0.888
		c-1.208,0-1.824-0.848-1.824-1.704c0-1.448,1.28-2.232,3.584-2.216v-0.128c0-0.488-0.136-1.384-1.36-1.384
		c-0.552,0-1.128,0.176-1.552,0.448l-0.248-0.72c0.488-0.312,1.208-0.528,1.96-0.528c1.824,0,2.264,1.24,2.264,2.432v2.232
		c0,0.52,0.024,1.024,0.104,1.424h-0.984V114.472z M255.56,111.44c-1.184-0.024-2.528,0.184-2.528,1.336
		c0,0.704,0.472,1.032,1.024,1.032c0.776,0,1.272-0.488,1.44-1c0.04-0.112,0.064-0.24,0.064-0.344V111.44z"/>
	<path style="fill:#2D2D2D;" d="M258.392,110.376c0-0.704-0.016-1.304-0.056-1.864h0.944l0.04,1.176h0.04
		c0.272-0.8,0.928-1.304,1.656-1.304c0.12,0,0.2,0.008,0.304,0.032v1.024c-0.112-0.024-0.224-0.032-0.368-0.032
		c-0.768,0-1.312,0.576-1.456,1.392c-0.024,0.144-0.056,0.312-0.056,0.496v3.176h-1.072v-4.096H258.392z"/>
	<path style="fill:#2D2D2D;" d="M266.56,114.256c-0.288,0.152-0.912,0.344-1.72,0.344c-1.792,0-2.968-1.216-2.968-3.04
		c0-1.84,1.264-3.168,3.208-3.168c0.64,0,1.208,0.168,1.504,0.304l-0.248,0.84c-0.264-0.152-0.664-0.28-1.264-0.28
		c-1.368,0-2.104,1.008-2.104,2.248c0,1.384,0.888,2.232,2.064,2.232c0.616,0,1.024-0.168,1.328-0.296L266.56,114.256z"/>
	<path style="fill:#2D2D2D;" d="M267.856,105.736h1.08v3.712h0.024c0.176-0.304,0.448-0.576,0.776-0.76
		c0.312-0.184,0.704-0.304,1.104-0.304c0.808,0,2.08,0.488,2.08,2.544v3.544h-1.08v-3.424c0-0.96-0.352-1.768-1.376-1.768
		c-0.704,0-1.264,0.488-1.456,1.08c-0.064,0.152-0.08,0.304-0.08,0.52v3.6h-1.08v-8.744H267.856z"/>
	<rect x="181.832" y="261.888" style="fill:#2D2D2D;" width="15.856" height="25.64"/>
</g>
<rect x="208.24" y="244.304" style="fill:#FFFFFF;" width="15.856" height="43.376"/>
<rect x="234.696" y="220.2" style="fill:#2D2D2D;" width="15.856" height="67.48"/>
<rect x="261.128" y="176.8" style="fill:#FFFFFF;" width="15.856" height="110.856"/>
<rect x="287.56" y="199.184" style="fill:#2D2D2D;" width="15.856" height="88.48"/>
<rect x="314" y="234.664" style="fill:#FFFFFF;" width="15.856" height="53.016"/>
</svg>